<?xml version="1.0" encoding="iso-8859-1"?>
<!-- Generator: Adobe Illustrator 19.0.0, SVG Export Plug-In . SVG Version: 6.00 Build 0)  -->
<svg version="1.1" id="Layer_1" xmlns="http://www.w3.org/2000/svg" xmlns:xlink="http://www.w3.org/1999/xlink" x="0px" y="0px"
	 viewBox="0 0 512 512" style="enable-background:new 0 0 512 512;" xml:space="preserve">
<polygon style="fill:#CEE8FA;" points="325.402,164.728 239.252,250.879 186.599,197.991 138.403,246.187 239.252,347.27 
	287.448,299.075 373.598,212.924 "/>
<g>
	<path style="fill:#2D527C;" d="M239.252,361.772c-0.003,0-0.006,0-0.009,0c-3.849-0.001-7.54-1.534-10.257-4.259L128.136,256.43
		c-5.653-5.666-5.647-14.838,0.012-20.497l48.196-48.196c2.719-2.719,6.408-4.248,10.254-4.248c0.006,0,0.01,0,0.016,0
		c3.852,0.004,7.544,1.542,10.262,4.271l42.398,42.587l75.874-75.873c5.663-5.662,14.846-5.663,20.509,0l48.194,48.194
		c5.663,5.663,5.663,14.846,0,20.509L249.503,357.525C246.787,360.245,243.098,361.772,239.252,361.772z M158.899,246.2
		l80.364,80.55l113.826-113.826l-27.687-27.687l-75.896,75.896c-2.719,2.719-6.408,4.248-10.254,4.248c-0.006,0-0.01,0-0.016,0
		c-3.852-0.004-7.544-1.542-10.262-4.271l-42.398-42.587L158.899,246.2z"/>
	<path style="fill:#2D527C;" d="M497.497,512H14.503c-8.009,0-14.502-6.493-14.502-14.502V14.502C0.001,6.493,6.495,0,14.503,0
		h482.995c8.009,0,14.502,6.493,14.502,14.502v385.151c0,8.009-6.493,14.502-14.502,14.502s-14.502-6.493-14.502-14.502V29.004
		H29.005v453.992h468.493c8.009,0,14.502,6.493,14.502,14.502S505.507,512,497.497,512z"/>
	<path style="fill:#2D527C;" d="M427.065,441.568H84.935c-8.009,0-14.502-6.493-14.502-14.502V154.242
		c0-8.009,6.493-14.502,14.502-14.502c8.009,0,14.502,6.493,14.502,14.502v258.323h313.127V99.436H84.935
		c-8.009,0-14.502-6.493-14.502-14.502s6.493-14.502,14.502-14.502h342.131c8.009,0,14.502,6.493,14.502,14.502v342.132
		C441.567,435.076,435.075,441.568,427.065,441.568z"/>
</g>
<g>
</g>
<g>
</g>
<g>
</g>
<g>
</g>
<g>
</g>
<g>
</g>
<g>
</g>
<g>
</g>
<g>
</g>
<g>
</g>
<g>
</g>
<g>
</g>
<g>
</g>
<g>
</g>
<g>
</g>
</svg>
